<svg width="200" height="200" viewBox="0 0 200 200" fill="none" xmlns="http://www.w3.org/2000/svg">
  <g opacity="0.8">
    <path d="M100 20C100 20 120 60 100 100C80 60 100 20 100 20Z" stroke="currentColor" stroke-width="2"/>
    <path d="M100 20C100 20 140 50 120 100C70 80 100 20 100 20Z" stroke="currentColor" stroke-width="2"/>
    <path d="M100 20C100 20 150 30 150 80C90 90 100 20 100 20Z" stroke="currentColor" stroke-width="2"/>
    <path d="M100 20C100 20 80 60 100 100C120 60 100 20 100 20Z" stroke="currentColor" stroke-width="2"/>
    <path d="M100 20C100 20 60 50 80 100C130 80 100 20 100 20Z" stroke="currentColor" stroke-width="2"/>
    <path d="M100 20C100 20 50 30 50 80C110 90 100 20 100 20Z" stroke="currentColor" stroke-width="2"/>
    <circle cx="100" cy="100" r="10" stroke="currentColor" stroke-width="2"/>
    <path d="M100 110C100 110 120 150 100 180C80 150 100 110 100 110Z" stroke="currentColor" stroke-width="2"/>
    <path d="M100 110C100 110 140 130 130 170C80 160 100 110 100 110Z" stroke="currentColor" stroke-width="2"/>
    <path d="M100 110C100 110 80 150 100 180C120 150 100 110 100 110Z" stroke="currentColor" stroke-width="2"/>
    <path d="M100 110C100 110 60 130 70 170C120 160 100 110 100 110Z" stroke="currentColor" stroke-width="2"/>
  </g>
</svg>

